<?xml version="1.0" standalone="no"?>
<!DOCTYPE svg PUBLIC "-//W3C//DTD SVG 20010904//EN"
 "http://www.w3.org/TR/2001/REC-SVG-20010904/DTD/svg10.dtd">
<svg version="1.0" xmlns="http://www.w3.org/2000/svg"
 width="512.000000pt" height="512.000000pt" viewBox="0 0 512.000000 512.000000"
 preserveAspectRatio="xMidYMid meet">
<metadata>
Created by potrace 1.14, written by Peter Selinger 2001-2017
</metadata>
<g transform="translate(0.000000,512.000000) scale(0.100000,-0.100000)"
fill="#000000" stroke="none">
<path d="M4615 5110 c-38 -5 -91 -11 -117 -14 -317 -38 -804 -137 -1118 -227
-879 -253 -1554 -612 -2010 -1069 -208 -208 -361 -417 -482 -655 -112 -221
-173 -403 -220 -650 -20 -107 -23 -150 -22 -385 0 -247 2 -273 27 -390 40
-187 44 -198 80 -220 36 -22 68 -25 100 -9 12 6 400 388 862 849 462 461 850
843 863 850 24 12 80 15 121 6 39 -9 90 -65 99 -110 18 -89 88 -13 -1308
-1411 -1432 -1434 -1337 -1331 -1328 -1454 9 -120 99 -210 219 -219 116 -9
111 -12 545 420 l391 390 84 -41 c89 -43 214 -79 369 -107 101 -19 494 -26
615 -12 164 19 385 75 540 135 188 74 467 228 498 276 28 44 30 88 5 136 -33
65 -69 79 -200 82 -59 2 -121 8 -137 15 -57 24 -62 114 -9 147 13 8 230 77
483 152 570 170 544 162 578 193 37 35 155 220 167 263 18 61 -19 143 -79 173
-20 11 -82 15 -246 17 -273 3 -286 7 -300 80 -14 73 -9 75 469 219 383 115
433 133 462 161 73 71 266 676 368 1151 86 402 131 717 131 913 0 87 -3 107
-26 155 -33 70 -99 136 -169 169 -45 21 -71 26 -145 28 -49 0 -121 -3 -160 -7z"/>
</g>
</svg>
